<?xml version="1.0" encoding="utf-8"?>
<!DOCTYPE svg PUBLIC "-//W3C//DTD SVG 1.0//EN" "http://www.w3.org/TR/2001/REC-SVG-20010904/DTD/svg10.dtd">
<svg version="1.0" xmlns="http://www.w3.org/2000/svg" width="626px" height="619px" viewBox="0 0 626 619" preserveAspectRatio="xMidYMid meet">
 <g fill="#000000">
  <path d="M274 618.55 c-0.70 -0.20 -3.40 -0.65 -6 -1 -10.50 -1.40 -23.55 -3.65 -28.50 -5 -2.90 -0.80 -8.30 -2.15 -12 -3.05 -3.70 -0.90 -7.30 -1.90 -8 -2.25 -0.70 -0.35 -4.15 -1.45 -7.75 -2.50 -3.55 -1.05 -7.75 -2.45 -9.25 -3.10 -1.50 -0.70 -4.90 -1.95 -7.50 -2.85 -2.60 -0.90 -6.10 -2.35 -7.75 -3.15 -1.65 -0.80 -4.35 -2 -6 -2.65 -1.65 -0.65 -3.35 -1.40 -3.75 -1.75 -0.40 -0.30 -2.90 -1.55 -5.50 -2.70 -2.60 -1.20 -5.75 -2.75 -7 -3.45 -1.25 -0.70 -3.95 -2.15 -6.10 -3.15 -2.10 -1.05 -3.95 -2.15 -4.15 -2.45 -0.15 -0.30 -1.90 -1.30 -3.85 -2.30 -1.90 -0.95 -4.85 -2.70 -6.55 -3.90 -1.70 -1.15 -4.20 -2.75 -5.60 -3.55 -1.35 -0.75 -3.15 -1.95 -4 -2.60 -0.80 -0.65 -2.60 -1.95 -4 -2.90 -5.80 -4 -8.65 -6.05 -11 -8 -1.35 -1.15 -3.35 -2.60 -4.35 -3.20 -1.05 -0.60 -1.90 -1.35 -1.90 -1.55 0 -0.25 -1.05 -1.15 -2.35 -2.05 -1.25 -0.90 -2.70 -1.95 -3.15 -2.40 -0.45 -0.45 -2.75 -2.50 -5.05 -4.55 -10.60 -9.45 -19.95 -18.70 -23.55 -23.35 -1.35 -1.75 -2.65 -3.15 -2.80 -3.15 -0.20 0 -1.90 -1.95 -3.85 -4.30 -1.90 -2.35 -4.40 -5.30 -5.50 -6.60 -1.15 -1.30 -2.70 -3.25 -3.50 -4.35 -0.80 -1.10 -1.90 -2.45 -2.40 -3 -1.10 -1.15 -4.30 -5.60 -6.95 -9.70 -1 -1.55 -2.45 -3.60 -3.25 -4.55 -0.80 -0.95 -2.55 -3.70 -3.80 -6.10 -1.30 -2.35 -2.55 -4.40 -2.85 -4.50 -0.50 -0.15 -3.65 -5.70 -7.50 -13.15 -1.30 -2.50 -2.95 -5.45 -3.65 -6.65 -0.75 -1.15 -1.35 -2.20 -1.35 -2.40 0 -0.15 -1.15 -2.60 -2.55 -5.40 -1.40 -2.75 -3.30 -6.95 -4.20 -9.30 -0.90 -2.35 -2.10 -5.05 -2.65 -6 -0.60 -0.95 -2 -4.45 -3.15 -7.75 -1.15 -3.30 -2.40 -6.45 -2.70 -7 -0.35 -0.55 -1.10 -2.70 -1.70 -4.75 -0.60 -2.05 -2.05 -6.90 -3.30 -10.75 -1.20 -3.85 -2.80 -9.60 -3.50 -12.75 -0.75 -3.15 -1.65 -6.65 -2 -7.75 -0.80 -2.40 -2.95 -14.20 -3.75 -20.50 -0.35 -2.45 -1 -7 -1.55 -10.10 -0.85 -5.15 -0.95 -8.40 -0.90 -39.75 0 -18.80 0.25 -35.25 0.45 -36.65 0.95 -5.30 1.55 -8.85 3.05 -18.50 0.85 -5.50 1.85 -10.90 2.25 -12 0.35 -1.10 1.35 -5.05 2.20 -8.75 0.85 -3.70 2.55 -9.90 3.75 -13.75 1.20 -3.85 2.80 -9 3.55 -11.50 0.70 -2.45 1.75 -5.35 2.30 -6.40 0.55 -1.05 1.75 -4.20 2.70 -6.95 0.95 -2.75 2.05 -5.50 2.45 -6.10 0.35 -0.55 1.45 -2.95 2.40 -5.30 1.60 -3.85 6.05 -13.25 7.45 -15.75 0.35 -0.55 1.90 -3.60 3.55 -6.75 1.65 -3.15 3.25 -6.10 3.60 -6.50 0.35 -0.40 1.30 -2.10 2.15 -3.80 0.85 -1.70 2.10 -3.70 2.75 -4.50 0.65 -0.80 1.35 -1.80 1.50 -2.20 0.35 -0.80 3.25 -5.25 5.40 -8.40 0.70 -1 2.15 -3.10 3.15 -4.60 1 -1.50 2.90 -4.15 4.20 -5.85 1.30 -1.70 3.35 -4.40 4.60 -6 12.65 -16.55 25.15 -29.65 43.75 -45.90 1.40 -1.20 3.60 -3.15 4.95 -4.35 1.30 -1.15 3.40 -2.80 4.60 -3.65 1.15 -0.80 4.45 -3.25 7.20 -5.35 2.80 -2.15 5.15 -3.90 5.25 -3.90 0.10 0 1.60 -1 3.35 -2.25 1.75 -1.25 4.10 -2.90 5.30 -3.65 8.70 -5.55 11.20 -7.05 13.60 -8.30 1.50 -0.80 3.10 -1.70 3.50 -2.05 0.40 -0.35 2.90 -1.70 5.50 -3 2.60 -1.30 5.30 -2.75 6 -3.25 0.70 -0.45 2.25 -1.20 3.50 -1.70 1.25 -0.50 3.50 -1.60 5 -2.50 1.50 -0.85 4.80 -2.35 7.25 -3.25 2.50 -0.95 5.40 -2.20 6.50 -2.85 1.10 -0.65 4.45 -1.95 7.45 -2.95 2.95 -1 6.25 -2.20 7.25 -2.75 1 -0.50 4.90 -1.80 8.60 -2.90 3.65 -1.10 7.95 -2.45 9.45 -3.05 1.50 -0.55 5.25 -1.55 8.25 -2.25 3.05 -0.65 7.65 -1.75 10.25 -2.45 4.55 -1.25 12.05 -2.65 20 -3.80 2.05 -0.30 6.10 -0.95 9 -1.40 4.65 -0.80 9.15 -0.90 40.25 -0.90 30.75 0.05 35.60 0.15 40 0.90 2.75 0.45 6.70 1.05 8.75 1.35 9.90 1.30 15 2.15 17.70 3.05 1.60 0.55 3.95 1.20 5.25 1.45 1.25 0.25 4.90 1.05 8.10 1.70 9.60 2 33.45 10.10 44.45 15.15 1.80 0.80 4.50 1.90 6 2.40 2.40 0.75 13.40 6.20 14.75 7.25 0.30 0.25 2.55 1.40 5 2.65 10.80 5.40 18.25 10.75 20.65 14.85 0.70 1.25 1.45 2.35 1.65 2.50 0.75 0.60 2.05 3.75 3.30 8.35 1.25 4.60 1.35 5.55 1.35 15.65 0 10.55 -0.05 10.85 -1.50 15.55 -3.10 9.90 -11.30 20.85 -19.20 25.65 -1.25 0.75 -2.95 1.90 -3.80 2.50 -0.90 0.60 -3.80 1.85 -6.50 2.75 -2.70 0.90 -5.15 1.80 -5.45 2.05 -0.80 0.70 -11.15 1.20 -12.40 0.60 -0.60 -0.25 -2.55 -1 -4.35 -1.60 -3.65 -1.25 -8.80 -3.75 -9.20 -4.45 -0.20 -0.25 -2.65 -1.65 -5.55 -3.10 -2.90 -1.45 -5.25 -2.80 -5.25 -2.95 0 -0.20 -1.05 -0.75 -2.35 -1.30 -1.35 -0.50 -4.55 -2.05 -7.15 -3.40 -2.60 -1.35 -6.10 -2.85 -7.75 -3.40 -1.65 -0.55 -4.55 -1.75 -6.50 -2.65 -1.90 -0.90 -5.40 -2.10 -7.70 -2.75 -2.35 -0.60 -5.45 -1.65 -6.90 -2.35 -1.50 -0.65 -5.80 -1.85 -9.55 -2.65 -3.75 -0.80 -9.10 -2 -11.85 -2.65 -15.70 -3.80 -41.35 -5.30 -61.60 -3.60 -10.20 0.85 -18.15 1.95 -23.90 3.30 -16.15 3.70 -21.20 5 -24 6.25 -0.80 0.35 -3.85 1.35 -6.75 2.20 -5.50 1.65 -11.20 4 -18.75 7.75 -2.45 1.20 -5.60 2.70 -7 3.25 -2.50 1.05 -5 2.45 -14.80 8.30 -2.95 1.75 -5.50 3.20 -5.70 3.20 -0.45 0 -5.35 3.45 -9.15 6.50 -1.60 1.25 -4.20 3.15 -5.85 4.25 -1.65 1.10 -3.65 2.60 -4.50 3.35 -13.10 11.55 -16.55 14.80 -22.10 20.90 -2.85 3.15 -6.20 6.75 -7.35 8 -1.20 1.25 -2.85 3.30 -3.75 4.65 -0.90 1.30 -1.75 2.35 -1.95 2.35 -0.20 0 -0.80 0.75 -1.30 1.65 -0.90 1.45 -2.20 3.30 -5.80 7.90 -0.70 0.85 -1.60 2.20 -2 2.90 -0.40 0.75 -1.35 2.15 -2.05 3.10 -0.70 0.95 -2.15 3.25 -3.25 5.15 -1.05 1.90 -2.35 4 -2.80 4.75 -0.85 1.30 -3.80 6.80 -6.05 11.30 -0.65 1.40 -2.30 4.65 -3.60 7.25 -1.30 2.60 -3.15 7 -4.10 9.75 -0.95 2.75 -1.90 5.25 -2.15 5.50 -0.75 0.95 -6 17.25 -7.20 22.40 -4.25 17.85 -5.60 26.40 -6.35 39.35 -0.60 10.30 -0.30 30.50 0.55 37 0.25 2.05 0.80 6.35 1.20 9.50 0.40 3.15 1.20 7.35 1.75 9.25 0.50 1.95 1.55 6.50 2.30 10.20 0.75 3.70 2.10 8.65 3 11.05 0.90 2.40 2.15 6.25 2.80 8.55 0.60 2.30 1.70 5.55 2.45 7.20 0.75 1.65 2.20 5.10 3.20 7.65 1.05 2.60 2.40 5.45 3.05 6.40 0.65 1 1.35 2.25 1.50 2.85 0.40 1.45 1.90 5.05 2.25 5.35 0.50 0.45 2.05 3.25 3.10 5.50 0.55 1.20 1.75 3.25 2.60 4.50 2.35 3.50 2.75 4.15 3.35 5.45 0.60 1.55 8.40 13.20 9.05 13.60 0.45 0.30 1.85 2.15 5.90 7.75 0.95 1.35 2.80 3.45 4.05 4.70 1.25 1.25 2.95 3.15 3.75 4.25 2.05 2.85 16.55 17.15 18.80 18.55 1 0.65 2.10 1.65 2.40 2.20 0.30 0.55 1.75 1.85 3.20 2.95 1.45 1.10 2.95 2.30 3.35 2.65 0.40 0.40 1.85 1.45 3.20 2.35 1.40 0.95 2.95 2.10 3.50 2.65 1.70 1.60 10.25 7.35 12.75 8.65 1.35 0.70 2.55 1.45 2.75 1.75 0.15 0.25 2.25 1.55 4.65 2.85 2.40 1.25 5.05 2.85 5.90 3.50 0.85 0.65 1.70 1.15 1.85 1.15 0.65 0 5.60 2.25 9.70 4.35 2.20 1.20 6.05 2.85 8.50 3.70 2.40 0.90 4.70 1.80 5.05 2.10 0.35 0.30 3.50 1.50 7 2.70 20.80 7.15 37.70 10.55 58.85 11.90 6.05 0.35 14.95 0.55 19.75 0.40 8.65 -0.20 32.15 -2.70 34.35 -3.65 0.95 -0.40 4.20 -1.20 16.60 -4 2.60 -0.60 5.65 -1.50 6.75 -2 1.15 -0.50 3.95 -1.50 6.30 -2.25 7.60 -2.40 16.60 -6 22.35 -8.95 1.85 -0.95 4.85 -2.30 6.60 -3 1.75 -0.70 3.90 -1.80 4.75 -2.45 0.85 -0.65 2.80 -1.85 4.30 -2.60 1.50 -0.75 2.85 -1.55 3 -1.70 0.25 -0.35 2.95 -1.95 7.75 -4.55 1.65 -0.90 3.25 -1.90 3.50 -2.20 0.30 -0.35 1.95 -1.60 3.75 -2.80 1.80 -1.20 3.50 -2.45 3.75 -2.75 0.45 -0.50 3.35 -2.55 5.95 -4.25 1.30 -0.85 5.45 -4.30 8.35 -7 1 -0.95 3.45 -3.20 5.40 -5 1.95 -1.80 5.20 -4.95 7.20 -6.95 1.95 -2.05 4.85 -5 6.35 -6.55 5.55 -5.70 17.50 -21.05 19.65 -25.25 0.40 -0.85 1.25 -1.95 1.85 -2.50 0.60 -0.55 1.65 -2.10 2.35 -3.45 0.70 -1.40 2.35 -4.20 3.65 -6.30 1.30 -2.05 2.50 -4.25 2.70 -4.85 0.20 -0.60 0.95 -1.95 1.65 -3 0.75 -1.05 2.30 -4.15 3.50 -6.90 1.20 -2.70 2.35 -5.10 2.60 -5.25 0.40 -0.30 3.05 -6.65 4.05 -9.75 0.35 -1.10 0.95 -2.45 1.30 -3 0.85 -1.35 7.70 -23.40 8.70 -27.90 1.50 -6.90 6.60 -12.80 14.70 -16.95 4.25 -2.20 12.65 -4.05 19.05 -4.30 19 -0.60 32.20 5 43.20 18.30 2.75 3.35 7.25 12.10 8.30 16 1.50 5.95 0.70 19.40 -1.50 24.35 -0.35 0.85 -1.35 4 -2.25 7 -1.60 5.65 -3.05 9.85 -4.25 12.50 -0.35 0.85 -1.15 3.10 -1.80 5 -0.60 1.95 -1.90 5.30 -2.95 7.50 -1 2.20 -2.10 4.80 -2.45 5.75 -0.75 2 -6.45 14.10 -8.30 17.50 -0.65 1.25 -2.20 4.30 -3.50 6.75 -1.30 2.50 -2.60 4.85 -3 5.25 -0.35 0.40 -1.25 2 -2 3.50 -0.75 1.50 -2.10 3.75 -2.95 5 -2.05 3 -2.55 3.75 -4.25 7 -0.80 1.50 -1.95 3.05 -2.50 3.40 -0.60 0.35 -1.05 0.90 -1.05 1.30 0 0.40 -0.95 1.90 -2.15 3.40 -1.20 1.45 -3.20 4.25 -4.50 6.15 -4.65 6.85 -8.55 11.80 -12.35 15.70 -0.70 0.70 -1.95 2.20 -2.75 3.30 -2.15 2.95 -5.10 6.15 -13.50 14.75 -7.15 7.30 -8.95 9 -14.90 14.15 -1.35 1.15 -3.50 3.15 -4.75 4.50 -1.30 1.30 -2.60 2.35 -2.90 2.35 -0.30 0 -1.60 0.95 -2.85 2.15 -2.10 1.95 -4.80 4 -7.60 5.85 -0.65 0.40 -2.15 1.60 -3.40 2.65 -1.20 1 -2.40 1.85 -2.60 1.85 -0.20 0 -1.10 0.75 -2 1.65 -0.85 0.85 -2.60 2.10 -3.90 2.75 -1.30 0.65 -2.70 1.50 -3.15 1.95 -0.90 0.95 -8.60 5.65 -9.15 5.65 -0.20 0 -0.80 0.45 -1.35 1.05 -0.50 0.60 -2.75 1.95 -4.95 3.05 -2.20 1.10 -4.10 2.20 -4.25 2.40 -0.15 0.20 -2.15 1.35 -4.50 2.55 -2.35 1.20 -5.35 2.85 -6.75 3.70 -1.35 0.85 -3.60 2 -5 2.50 -1.35 0.50 -3.70 1.55 -5.15 2.35 -1.40 0.80 -4.35 2.15 -6.50 3 -2.10 0.85 -4.95 2.15 -6.35 2.90 -1.35 0.80 -3.85 1.80 -5.50 2.25 -1.65 0.45 -5.05 1.70 -7.55 2.75 -2.45 1.10 -6.05 2.35 -8 2.80 -1.90 0.50 -4.90 1.40 -6.70 2.10 -4.60 1.65 -8.55 2.85 -13.75 4.05 -2.45 0.55 -7.20 1.70 -10.50 2.55 -3.30 0.80 -9.15 2 -13 2.55 -3.85 0.55 -9.90 1.50 -13.50 2.10 -6.15 1 -8.50 1.05 -41.75 1.15 -19.40 0.05 -35.80 -0.05 -36.50 -0.25z"/>
  <path d="M317.90 343.50 c-2.75 -0.45 -6.05 -1.65 -12.25 -4.55 -1.90 -0.90 -4.50 -2.75 -6.55 -4.75 -3.05 -2.85 -4.30 -4.55 -8.30 -11.35 -0.50 -0.90 -1.35 -2.70 -1.80 -4.10 -0.50 -1.35 -1.40 -3.45 -1.95 -4.60 -0.55 -1.10 -1.50 -3.80 -2.10 -5.95 -0.95 -3.50 -1.05 -4.80 -0.80 -12.20 0.20 -7.20 0.40 -8.65 1.50 -11.60 0.65 -1.85 1.70 -3.95 2.25 -4.75 0.50 -0.75 1.10 -1.85 1.30 -2.45 0.50 -1.60 5.25 -6.90 8.65 -9.60 1.75 -1.35 5.05 -3.30 7.50 -4.30 2.40 -1.05 5.40 -2.40 6.65 -3 1.25 -0.65 3.95 -1.75 6 -2.45 2.05 -0.75 4.95 -1.90 6.45 -2.60 1.50 -0.75 4.95 -2.10 7.70 -3.10 2.75 -1 5.75 -2.20 6.60 -2.70 0.85 -0.55 3.55 -1.65 6 -2.50 2.45 -0.80 5.85 -2.20 7.65 -3 1.80 -0.85 4.95 -2.10 7.05 -2.80 2.10 -0.70 4.95 -1.80 6.30 -2.50 1.40 -0.70 4.65 -2.05 7.25 -3 2.60 -0.95 4.95 -1.90 5.25 -2.15 0.50 -0.40 4.55 -2 9.50 -3.75 1.40 -0.50 3.65 -1.45 5 -2.10 1.40 -0.70 4.20 -1.80 6.25 -2.50 2.05 -0.70 5.45 -2.05 7.50 -3 2.05 -0.95 5.65 -2.40 7.95 -3.20 2.30 -0.85 5.10 -1.95 6.20 -2.50 1.10 -0.60 4.10 -1.80 6.70 -2.75 2.55 -0.95 5.55 -2.15 6.65 -2.70 1.10 -0.55 4.30 -1.85 7.15 -2.85 2.80 -1 5.55 -2.10 6.10 -2.45 0.55 -0.35 3.70 -1.65 7 -2.85 3.30 -1.20 7.25 -2.80 8.75 -3.50 1.50 -0.70 5 -2.10 7.75 -3.15 2.75 -1 5.25 -2 5.50 -2.20 0.30 -0.25 2.75 -1.25 5.50 -2.25 2.75 -1.05 5.25 -2.05 5.50 -2.25 0.50 -0.40 3.40 -1.55 10.75 -4.25 2.05 -0.75 4.25 -1.70 4.90 -2.10 0.60 -0.40 3.45 -1.50 6.25 -2.45 2.80 -1 5.80 -2.20 6.70 -2.70 0.85 -0.50 3.90 -1.75 6.75 -2.80 2.85 -1 6.05 -2.25 7.10 -2.80 1.10 -0.55 4.10 -1.75 6.75 -2.70 2.65 -0.95 5.80 -2.25 7.05 -2.90 1.25 -0.65 4.05 -1.80 6.25 -2.55 2.20 -0.75 5.25 -2 6.75 -2.75 1.50 -0.75 4.90 -2.10 7.50 -3 2.60 -0.90 5.20 -1.95 5.75 -2.30 0.55 -0.30 2.80 -1.15 5 -1.75 3.45 -1 5.05 -1.15 12 -1.15 9.35 0.05 11.45 0.60 20.25 5.20 5.20 2.75 13.10 12.80 15.25 19.50 0.50 1.50 1.55 4.30 2.35 6.20 l1.40 3.45 0 11.85 0 11.90 -2.35 4.95 c-2.45 5.10 -6.80 10.65 -9.85 12.65 -0.85 0.55 -2.45 1.65 -3.55 2.45 -1.10 0.75 -3.55 2 -5.50 2.75 -1.90 0.75 -4.50 1.85 -5.75 2.40 -1.25 0.55 -3.70 1.55 -5.50 2.25 -1.80 0.65 -3.70 1.40 -4.25 1.65 -5 2.25 -9.20 4 -9.55 4 -0.55 0 -7.05 2.65 -9 3.65 -0.80 0.40 -3.70 1.55 -6.45 2.50 -2.75 0.95 -6.10 2.30 -7.50 3.05 -1.35 0.70 -3.90 1.70 -5.65 2.30 -1.70 0.55 -4.75 1.75 -6.75 2.70 -1.95 0.90 -4.85 2.05 -6.35 2.55 -2.65 0.85 -6.95 2.65 -9.50 3.95 -0.70 0.40 -2.80 1.20 -4.75 1.80 -1.90 0.60 -4.75 1.75 -6.30 2.50 -1.50 0.75 -5.65 2.45 -9.25 3.75 -3.55 1.30 -6.70 2.55 -7 2.80 -0.30 0.25 -2.65 1.20 -5.25 2.15 -2.60 0.95 -5.80 2.25 -7.20 2.95 -1.35 0.70 -4.30 1.85 -6.50 2.60 -2.20 0.75 -5.10 1.90 -6.50 2.60 -1.35 0.70 -4.75 2.05 -7.50 3 -2.75 1 -5.35 2.05 -5.75 2.40 -0.40 0.35 -3 1.40 -5.75 2.40 -6.05 2.15 -8.45 3.10 -10.75 4.30 -0.95 0.50 -3 1.30 -4.50 1.80 -1.50 0.50 -4.35 1.65 -6.25 2.55 -1.95 0.85 -4.95 2.10 -6.75 2.70 -1.75 0.60 -4.60 1.70 -6.25 2.50 -1.65 0.75 -5.25 2.20 -8 3.20 -2.75 1 -5.85 2.25 -6.85 2.80 -1.05 0.55 -3.85 1.70 -6.25 2.55 -2.45 0.85 -5.95 2.30 -7.90 3.20 -1.90 0.90 -5.40 2.25 -7.75 3 -2.35 0.75 -4.60 1.70 -5.05 2.05 -0.45 0.40 -3.45 1.70 -6.75 2.90 -3.25 1.15 -7.20 2.70 -8.70 3.45 -1.50 0.70 -4.55 1.90 -6.75 2.65 -2.20 0.75 -4.35 1.65 -4.80 2.05 -0.45 0.35 -1.45 0.90 -2.25 1.15 -0.80 0.20 -3.35 1.15 -5.70 2.05 -11.15 4.20 -12 4.40 -18.55 4.65 -3.40 0.15 -7.50 0.05 -9.05 -0.20z"/>
 </g>
 <g fill="#ffffff">
  <path d="M0 473.25 c0 -80.15 0.20 -145.75 0.40 -145.75 0.25 0 0.60 3.15 0.75 6.95 0.20 3.85 0.75 9.50 1.30 12.65 0.50 3.10 1.20 7.70 1.55 10.15 0.70 5.60 3 18.35 3.40 19 0.15 0.25 0.35 0.80 0.40 1.25 0.40 2.65 3.60 14.85 5.45 20.75 1.25 3.85 2.70 8.70 3.30 10.75 0.60 2.05 1.35 4.20 1.70 4.75 0.30 0.55 1.55 3.70 2.70 7 1.15 3.30 2.55 6.80 3.15 7.75 0.55 0.95 1.75 3.65 2.65 6 0.90 2.35 2.80 6.55 4.20 9.30 1.40 2.80 2.55 5.25 2.55 5.40 0 0.20 0.60 1.25 1.35 2.40 0.70 1.20 2.35 4.15 3.65 6.65 3.85 7.45 7 13 7.50 13.15 0.30 0.10 1.55 2.15 2.85 4.50 1.25 2.40 3 5.15 3.80 6.10 0.80 0.95 2.25 3 3.25 4.55 2.65 4.10 5.85 8.55 6.95 9.70 0.50 0.55 1.60 1.90 2.40 3 0.80 1.10 2.35 3.05 3.50 4.35 1.10 1.30 3.60 4.25 5.50 6.60 1.95 2.35 3.65 4.30 3.85 4.30 0.15 0 1.45 1.40 2.80 3.15 3.60 4.65 12.95 13.90 23.55 23.35 2.30 2.05 4.60 4.10 5.05 4.55 0.45 0.45 1.90 1.50 3.15 2.40 1.30 0.90 2.35 1.80 2.35 2.05 0 0.20 0.85 0.95 1.90 1.55 1 0.60 3 2.05 4.35 3.20 2.35 1.95 5.20 4 11 8 1.40 0.95 3.20 2.25 4 2.90 0.85 0.65 2.65 1.85 4 2.60 1.40 0.80 3.90 2.40 5.60 3.55 1.70 1.20 4.65 2.95 6.55 3.90 1.95 1 3.70 2 3.85 2.30 0.20 0.30 2.05 1.40 4.15 2.45 2.15 1 4.85 2.45 6.10 3.15 1.25 0.70 4.40 2.25 7 3.45 2.60 1.15 5.10 2.40 5.50 2.70 0.40 0.35 2.10 1.10 3.75 1.75 1.65 0.65 4.35 1.85 6 2.65 1.65 0.80 5.15 2.25 7.75 3.15 2.60 0.90 6 2.15 7.50 2.85 1.50 0.65 5.70 2.05 9.25 3.10 3.60 1.05 7.05 2.15 7.75 2.50 0.70 0.35 4.30 1.35 8 2.25 3.70 0.90 9.10 2.25 12 3.05 4.75 1.25 12.50 2.65 29.50 5.25 3.15 0.45 9.15 1.10 13.35 1.40 4.15 0.30 7.75 0.70 7.95 0.95 0.20 0.20 -65.35 0.35 -145.70 0.35 l-146.10 0 0 -145.75z"/>
  <path d="M328 618.50 c0 -0.30 1.75 -0.50 4.15 -0.55 5.05 -0.05 10.10 -0.55 18.60 -1.85 3.60 -0.55 9.65 -1.50 13.50 -2.05 3.85 -0.55 9.70 -1.75 13 -2.55 3.30 -0.85 8.05 -2 10.50 -2.55 5.20 -1.20 9.15 -2.40 13.75 -4.05 1.80 -0.70 4.80 -1.60 6.70 -2.10 1.95 -0.45 5.55 -1.70 8 -2.80 2.50 -1.05 5.90 -2.30 7.55 -2.75 1.65 -0.45 4.15 -1.45 5.50 -2.25 1.40 -0.75 4.25 -2.05 6.35 -2.90 2.15 -0.85 5.10 -2.20 6.50 -3 1.45 -0.80 3.80 -1.85 5.15 -2.35 1.40 -0.50 3.65 -1.65 5 -2.50 1.40 -0.85 4.40 -2.50 6.75 -3.70 2.35 -1.20 4.35 -2.35 4.50 -2.55 0.15 -0.20 2.05 -1.30 4.25 -2.40 2.20 -1.10 4.45 -2.45 4.95 -3.05 0.55 -0.60 1.15 -1.05 1.35 -1.05 0.55 0 8.25 -4.70 9.15 -5.65 0.45 -0.45 1.85 -1.30 3.15 -1.95 1.30 -0.65 3.05 -1.90 3.90 -2.75 0.90 -0.90 1.80 -1.65 2 -1.65 0.20 0 1.40 -0.85 2.60 -1.85 1.25 -1.05 2.75 -2.25 3.40 -2.65 2.80 -1.85 5.50 -3.90 7.60 -5.85 1.25 -1.20 2.55 -2.15 2.85 -2.15 0.30 0 1.60 -1.05 2.90 -2.35 1.25 -1.35 3.40 -3.35 4.75 -4.50 5.95 -5.15 7.75 -6.85 14.90 -14.15 8.40 -8.60 11.35 -11.80 13.50 -14.75 0.80 -1.10 2.05 -2.60 2.75 -3.30 3.80 -3.90 7.70 -8.85 12.35 -15.70 1.30 -1.90 3.30 -4.70 4.50 -6.15 1.20 -1.50 2.15 -3 2.15 -3.40 0 -0.40 0.45 -0.95 1.05 -1.30 0.55 -0.35 1.70 -1.90 2.50 -3.40 1.70 -3.25 2.20 -4 4.25 -7 0.85 -1.25 2.20 -3.50 2.95 -5 0.75 -1.50 1.65 -3.10 2 -3.50 0.40 -0.40 1.70 -2.75 3 -5.25 1.30 -2.45 2.85 -5.50 3.50 -6.75 1.85 -3.40 7.55 -15.50 8.30 -17.50 0.35 -0.95 1.45 -3.55 2.45 -5.75 1.05 -2.20 2.35 -5.55 2.95 -7.50 0.65 -1.90 1.45 -4.15 1.80 -5 1.20 -2.65 2.65 -6.85 4.25 -12.50 0.90 -3 1.90 -6.15 2.25 -7 2.15 -4.80 2.90 -15.85 1.50 -21.35 -1.05 -3.90 -5.55 -12.65 -8.30 -16 -6.45 -7.75 -14.95 -13.70 -23.10 -16.10 -5.55 -1.60 -13.15 -2.50 -18.75 -2.15 -4.75 0.25 -14.10 2.55 -17.40 4.25 -8.10 4.15 -13.20 10.05 -14.70 16.95 -1 4.50 -7.85 26.55 -8.70 27.90 -0.35 0.55 -0.95 1.90 -1.30 3 -1 3.10 -3.65 9.45 -4.05 9.75 -0.25 0.15 -1.40 2.55 -2.60 5.25 -1.20 2.75 -2.75 5.85 -3.50 6.90 -0.70 1.05 -1.45 2.40 -1.65 3 -0.20 0.60 -1.40 2.80 -2.70 4.85 -1.30 2.10 -2.95 4.90 -3.65 6.30 -0.70 1.35 -1.75 2.90 -2.35 3.45 -0.60 0.55 -1.45 1.65 -1.85 2.50 -2.15 4.20 -14.10 19.55 -19.65 25.25 -1.50 1.55 -4.40 4.50 -6.35 6.55 -2 2 -5.25 5.15 -7.20 6.95 -1.95 1.80 -4.40 4.05 -5.40 5 -2.90 2.70 -7.05 6.15 -8.35 7 -2.60 1.70 -5.50 3.75 -5.95 4.25 -0.25 0.30 -1.95 1.55 -3.75 2.75 -1.80 1.20 -3.45 2.45 -3.75 2.80 -0.25 0.30 -1.85 1.30 -3.50 2.20 -4.80 2.60 -7.50 4.20 -7.75 4.55 -0.15 0.15 -1.50 0.95 -3 1.70 -1.50 0.75 -3.45 1.95 -4.30 2.60 -0.85 0.65 -3 1.75 -4.75 2.45 -1.75 0.70 -4.75 2.05 -6.60 3 -5.75 2.95 -14.75 6.55 -22.35 8.95 -2.35 0.75 -5.15 1.75 -6.30 2.25 -1.10 0.50 -4.15 1.40 -6.75 2 -12.40 2.80 -15.65 3.60 -16.60 4 -2.30 1 -25.75 3.45 -35.35 3.70 -10.85 0.30 -29.50 -0.65 -38 -1.95 -14.25 -2.20 -14.35 -2.25 -16 -2.90 -0.40 -0.15 -3.80 -1 -7.50 -1.85 -3.70 -0.90 -8.45 -2.15 -10.50 -2.80 -11.60 -3.85 -14.30 -4.75 -15.20 -5.35 -0.60 -0.40 -3.05 -1.40 -5.45 -2.25 -2.45 -0.90 -6.30 -2.55 -8.50 -3.75 -4.10 -2.10 -9.05 -4.35 -9.70 -4.35 -0.15 0 -1 -0.50 -1.85 -1.15 -0.85 -0.65 -3.50 -2.25 -5.90 -3.50 -2.40 -1.30 -4.50 -2.60 -4.65 -2.85 -0.20 -0.30 -1.40 -1.05 -2.75 -1.75 -2.50 -1.30 -11.05 -7.05 -12.75 -8.65 -0.55 -0.55 -2.10 -1.70 -3.50 -2.65 -1.35 -0.90 -2.80 -1.95 -3.20 -2.35 -0.40 -0.35 -1.90 -1.55 -3.35 -2.65 -1.45 -1.10 -2.90 -2.40 -3.20 -2.95 -0.30 -0.55 -1.40 -1.55 -2.40 -2.20 -2.25 -1.40 -16.75 -15.70 -18.80 -18.55 -0.80 -1.10 -2.50 -3 -3.75 -4.25 -1.25 -1.25 -3.10 -3.35 -4.05 -4.70 -4.05 -5.60 -5.45 -7.45 -5.90 -7.75 -0.65 -0.40 -8.45 -12.05 -9.05 -13.60 -0.60 -1.30 -1 -1.95 -3.35 -5.45 -0.85 -1.25 -2.05 -3.30 -2.60 -4.50 -1.05 -2.25 -2.60 -5.05 -3.10 -5.50 -0.35 -0.30 -1.85 -3.90 -2.25 -5.35 -0.15 -0.60 -0.85 -1.85 -1.50 -2.85 -0.65 -0.95 -2 -3.80 -3.05 -6.40 -1 -2.55 -2.45 -6 -3.20 -7.65 -0.75 -1.65 -1.85 -4.90 -2.45 -7.20 -0.65 -2.30 -1.90 -6.15 -2.80 -8.55 -0.90 -2.40 -2.25 -7.35 -3 -11.05 -0.75 -3.70 -1.80 -8.25 -2.30 -10.20 -0.55 -1.90 -1.35 -6.10 -1.75 -9.25 -0.40 -3.15 -0.95 -7.45 -1.25 -9.50 -0.80 -6.30 -1.10 -29.50 -0.50 -40 0.75 -12.95 2.10 -21.45 6.35 -39.35 1.20 -5.15 6.45 -21.45 7.20 -22.40 0.25 -0.25 1.20 -2.75 2.15 -5.50 0.95 -2.75 2.80 -7.15 4.10 -9.75 1.30 -2.60 2.95 -5.85 3.60 -7.25 2.25 -4.50 5.20 -10 6.05 -11.30 0.45 -0.75 1.75 -2.85 2.80 -4.75 1.10 -1.90 2.55 -4.20 3.25 -5.15 0.70 -0.95 1.65 -2.35 2.05 -3.10 0.40 -0.70 1.30 -2.05 2 -2.90 3.60 -4.60 4.90 -6.45 5.80 -7.95 0.50 -0.85 1.10 -1.60 1.30 -1.60 0.20 0 1.05 -1.05 1.95 -2.35 0.90 -1.35 2.55 -3.40 3.75 -4.65 1.15 -1.25 4.50 -4.85 7.35 -8 5.55 -6.10 9 -9.35 22.10 -20.90 0.85 -0.75 2.85 -2.25 4.50 -3.35 1.65 -1.10 4.25 -3 5.85 -4.25 3.80 -3.05 8.70 -6.50 9.15 -6.50 0.20 0 2.75 -1.45 5.70 -3.20 9.80 -5.85 12.30 -7.25 14.80 -8.30 1.40 -0.55 4.55 -2.05 7 -3.25 7.55 -3.75 13.25 -6.10 18.75 -7.75 2.90 -0.85 5.95 -1.85 6.75 -2.20 2.80 -1.25 7.85 -2.55 24 -6.25 23.55 -5.45 65.50 -5.30 88.50 0.30 2.75 0.65 8.10 1.85 11.85 2.65 3.75 0.80 8.05 2 9.55 2.65 1.45 0.70 4.55 1.75 6.90 2.35 2.30 0.65 5.80 1.85 7.70 2.75 1.95 0.90 4.85 2.10 6.50 2.65 1.65 0.55 5.15 2.05 7.75 3.40 2.60 1.35 5.80 2.90 7.15 3.40 1.30 0.55 2.35 1.10 2.35 1.30 0 0.15 2.35 1.50 5.25 2.95 2.90 1.45 5.35 2.85 5.55 3.10 0.40 0.70 5.55 3.20 9.20 4.45 1.80 0.60 3.75 1.35 4.30 1.60 0.70 0.30 2.30 0.35 4.25 0.10 1.75 -0.20 3.50 -0.35 3.85 -0.25 0.40 0.05 0.95 -0.10 1.30 -0.40 0.30 -0.25 2.80 -1.20 5.50 -2.10 2.70 -0.90 5.60 -2.15 6.50 -2.75 0.85 -0.60 2.55 -1.75 3.80 -2.50 7.90 -4.80 16.10 -15.80 19.20 -25.65 1.40 -4.60 1.45 -5.20 1.45 -14.05 0 -8.50 -0.10 -9.65 -1.35 -14.15 -1.20 -4.55 -2.45 -7.75 -3.25 -8.35 -0.20 -0.15 -0.95 -1.25 -1.65 -2.50 -2.40 -4.10 -9.85 -9.45 -20.65 -14.85 -2.45 -1.25 -4.70 -2.40 -5 -2.65 -1.35 -1.05 -12.35 -6.50 -14.75 -7.25 -1.50 -0.50 -4.20 -1.60 -6 -2.40 -11 -5.05 -34.85 -13.15 -44.45 -15.15 -3.20 -0.65 -6.85 -1.45 -8.10 -1.70 -1.30 -0.25 -3.65 -0.90 -5.25 -1.45 -2.70 -0.90 -7.80 -1.75 -17.70 -3.05 -2.05 -0.30 -6 -0.85 -8.75 -1.30 -6.65 -1.05 -12.20 -1.60 -16.85 -1.65 -2.10 -0.05 -4 -0.25 -4.15 -0.55 -0.20 -0.35 49.75 -0.50 149.45 -0.50 l149.80 0 0 96.50 c0 64 -0.15 96.50 -0.50 96.50 -0.25 0 -0.50 -0.45 -0.50 -1 0 -0.55 -0.45 -2.20 -0.95 -3.65 -0.55 -1.40 -1.75 -4.75 -2.75 -7.40 -2.45 -6.70 -5.75 -12 -10.25 -16.35 -3.70 -3.55 -4.75 -4.30 -9.55 -6.60 -5.50 -2.60 -7.95 -3.15 -14.75 -3.15 -5.35 -0.05 -7.20 0.15 -10.50 1.10 -2.20 0.60 -4.45 1.45 -5 1.75 -0.55 0.35 -3.15 1.40 -5.75 2.30 -2.60 0.90 -6 2.25 -7.50 3 -1.50 0.75 -4.55 2 -6.75 2.75 -2.20 0.75 -5 1.90 -6.25 2.55 -1.25 0.65 -4.40 1.95 -7.05 2.90 -2.65 0.95 -5.65 2.15 -6.75 2.70 -1.05 0.55 -4.25 1.80 -7.10 2.80 -2.85 1.05 -5.90 2.30 -6.75 2.80 -0.90 0.50 -3.90 1.70 -6.70 2.70 -2.80 0.95 -5.65 2.05 -6.25 2.45 -0.65 0.40 -2.85 1.35 -4.90 2.10 -7.35 2.70 -10.25 3.85 -10.75 4.25 -0.25 0.20 -2.75 1.20 -5.50 2.25 -2.75 1 -5.20 2 -5.50 2.25 -0.25 0.20 -2.75 1.20 -5.50 2.20 -2.75 1.05 -6.25 2.45 -7.75 3.15 -1.50 0.70 -5.45 2.30 -8.75 3.50 -3.30 1.20 -6.45 2.50 -7 2.85 -0.55 0.35 -3.30 1.45 -6.10 2.45 -2.85 1 -6.05 2.30 -7.15 2.85 -1.10 0.55 -4.10 1.75 -6.65 2.70 -2.60 0.95 -5.60 2.15 -6.70 2.75 -1.10 0.55 -3.90 1.65 -6.20 2.50 -2.30 0.80 -5.90 2.25 -7.95 3.20 -2.05 0.95 -5.45 2.30 -7.50 3 -2.05 0.70 -4.85 1.80 -6.25 2.50 -1.35 0.65 -3.60 1.60 -5 2.10 -4.95 1.75 -9 3.35 -9.50 3.75 -0.30 0.25 -2.65 1.20 -5.25 2.15 -2.60 0.95 -5.85 2.30 -7.25 3 -1.35 0.70 -4.20 1.80 -6.30 2.50 -2.10 0.70 -5.25 1.95 -7.05 2.80 -1.80 0.80 -5.20 2.20 -7.65 3 -2.45 0.85 -5.15 1.95 -6 2.50 -0.85 0.50 -3.85 1.70 -6.60 2.70 -2.75 1 -6.20 2.35 -7.70 3.10 -1.50 0.70 -4.40 1.85 -6.45 2.60 -2.05 0.70 -4.75 1.80 -6 2.45 -1.25 0.60 -4.25 1.95 -6.65 3 -2.45 1 -5.75 2.95 -7.50 4.30 -3.40 2.70 -8.15 8 -8.65 9.60 -0.20 0.60 -0.80 1.70 -1.30 2.45 -2.35 3.35 -3.50 7.75 -3.75 14.85 -0.25 5.90 -0.15 7.25 0.80 10.65 0.60 2.20 1.55 4.90 2.10 6 0.55 1.15 1.45 3.25 1.95 4.60 0.45 1.40 1.30 3.20 1.80 4.10 4 6.80 5.25 8.50 8.30 11.35 3.30 3.20 5.40 4.40 12.80 7.50 6.55 2.75 16.15 2.80 23.35 0.05 8.50 -3.20 11.60 -4.35 12.95 -4.75 0.80 -0.25 1.80 -0.80 2.25 -1.15 0.45 -0.40 2.60 -1.30 4.80 -2.05 2.20 -0.75 5.25 -1.95 6.75 -2.65 1.50 -0.75 5.45 -2.30 8.70 -3.45 3.30 -1.20 6.30 -2.50 6.75 -2.90 0.45 -0.35 2.70 -1.30 5.05 -2.05 2.35 -0.75 5.85 -2.10 7.75 -3 1.95 -0.90 5.45 -2.35 7.90 -3.20 2.40 -0.85 5.20 -2 6.25 -2.55 1 -0.55 4.10 -1.80 6.85 -2.80 2.75 -1 6.35 -2.45 8 -3.20 1.65 -0.80 4.50 -1.90 6.25 -2.50 1.80 -0.60 4.80 -1.85 6.75 -2.70 1.90 -0.90 4.75 -2.05 6.25 -2.55 1.50 -0.50 3.55 -1.30 4.50 -1.80 2.30 -1.20 4.70 -2.15 10.75 -4.30 2.75 -1 5.35 -2.05 5.75 -2.40 0.40 -0.35 3 -1.40 5.75 -2.40 2.75 -0.95 6.15 -2.30 7.50 -3 1.40 -0.70 4.30 -1.85 6.50 -2.60 2.20 -0.75 5.15 -1.90 6.50 -2.60 1.40 -0.70 4.60 -2 7.20 -2.95 2.60 -0.95 4.95 -1.90 5.25 -2.15 0.30 -0.25 3.45 -1.50 7 -2.80 3.60 -1.30 7.75 -3 9.25 -3.75 1.55 -0.75 4.40 -1.90 6.30 -2.50 1.95 -0.60 4.05 -1.40 4.75 -1.80 2.55 -1.30 6.85 -3.10 9.50 -3.95 1.50 -0.50 4.40 -1.65 6.35 -2.55 2 -0.95 5.05 -2.15 6.75 -2.70 1.75 -0.60 4.30 -1.60 5.65 -2.30 1.40 -0.75 4.75 -2.10 7.50 -3.05 2.75 -0.95 5.65 -2.10 6.45 -2.50 1.95 -1 8.45 -3.65 9 -3.65 0.35 0 4.55 -1.75 9.55 -4 0.55 -0.25 2.45 -1 4.25 -1.65 1.80 -0.70 4.25 -1.70 5.50 -2.25 1.25 -0.55 3.85 -1.65 5.75 -2.40 1.95 -0.75 4.40 -2 5.50 -2.75 1.10 -0.80 2.70 -1.90 3.55 -2.45 0.80 -0.55 2.85 -2.50 4.50 -4.35 3.45 -3.90 7.60 -12.10 8.05 -15.80 0.15 -1.30 0.50 -2.35 0.70 -2.35 0.25 0 0.45 91.65 0.45 207 l0 207 -149 0 c-99 0 -149 -0.15 -149 -0.50z"/>
  <path d="M0 145.25 l0 -145.25 145.50 0 c96.65 0 145.50 0.15 145.50 0.50 0 0.30 -1.55 0.50 -3.60 0.55 -4.55 0.05 -10.65 0.65 -17.15 1.65 -2.75 0.45 -6.70 1.05 -8.75 1.35 -7.95 1.15 -15.45 2.55 -20 3.80 -2.60 0.70 -7.20 1.80 -10.25 2.45 -3 0.70 -6.75 1.70 -8.25 2.25 -1.50 0.60 -5.80 1.95 -9.45 3.05 -3.70 1.10 -7.60 2.40 -8.60 2.90 -1 0.55 -4.30 1.75 -7.25 2.75 -3 1 -6.35 2.30 -7.45 2.95 -1.10 0.65 -4 1.90 -6.50 2.85 -2.45 0.90 -5.75 2.40 -7.25 3.25 -1.50 0.90 -3.75 2 -5 2.50 -1.25 0.50 -2.80 1.25 -3.50 1.70 -0.70 0.50 -3.40 1.95 -6 3.25 -2.60 1.30 -5.10 2.65 -5.50 3 -0.40 0.35 -2 1.25 -3.50 2.05 -2.40 1.25 -4.90 2.75 -13.60 8.30 -1.20 0.75 -3.55 2.40 -5.30 3.65 -1.75 1.25 -3.25 2.25 -3.35 2.25 -0.10 0 -2.45 1.75 -5.25 3.90 -2.75 2.10 -6.05 4.55 -7.20 5.35 -1.20 0.85 -3.30 2.50 -4.60 3.65 -1.35 1.20 -3.55 3.15 -4.95 4.35 -18.60 16.25 -31.10 29.35 -43.75 45.90 -1.25 1.60 -3.30 4.30 -4.60 6 -1.30 1.70 -3.20 4.35 -4.20 5.85 -1 1.50 -2.45 3.60 -3.15 4.60 -2.15 3.15 -5.05 7.60 -5.40 8.40 -0.15 0.40 -0.85 1.40 -1.50 2.20 -0.65 0.80 -1.90 2.80 -2.75 4.50 -0.85 1.70 -1.80 3.40 -2.15 3.80 -0.35 0.40 -1.95 3.35 -3.60 6.50 -1.65 3.15 -3.20 6.20 -3.55 6.75 -1.40 2.50 -5.85 11.90 -7.45 15.75 -0.95 2.35 -2.05 4.75 -2.40 5.30 -0.40 0.60 -1.50 3.35 -2.45 6.10 -0.95 2.75 -2.15 5.90 -2.70 6.95 -0.55 1.05 -1.60 3.95 -2.30 6.40 -0.75 2.50 -2.35 7.65 -3.55 11.50 -1.20 3.85 -2.95 10.15 -3.80 14 -0.90 3.85 -1.80 7.35 -2 7.85 -0.55 1.05 -3.25 16.85 -3.95 22.90 -0.30 2.55 -0.75 5 -1 5.55 -0.30 0.50 -0.75 5.10 -1.10 10.20 -0.30 5.10 -0.75 9.25 -1 9.25 -0.20 0 -0.40 -65.35 -0.40 -145.25z"/>
 </g>
</svg>